<svg id="Layer_1" data-name="Layer 1" xmlns="http://www.w3.org/2000/svg" viewBox="0 0 502 343.34"><defs><style>.cls-1{fill:#fff;stroke:#231f20;}.cls-1,.cls-2{stroke-linecap:round;stroke-miterlimit:10;}.cls-2{fill:none;stroke:#42aae0;stroke-width:6px;}.cls-3{isolation:isolate;}.cls-4{fill:#231f20;}</style></defs><title>I&amp;apos;m good on FCC.gov</title><ellipse class="cls-1" cx="251" cy="171.67" rx="250.5" ry="171.17"/><ellipse class="cls-2" cx="251" cy="170.5" rx="241.25" ry="163"/><g class="cls-3"><g class="cls-3"><path class="cls-4" d="M241.8,138.54q-6.56,45.07-12.91,89.89A67.63,67.63,0,0,1,217,253.62a48.6,48.6,0,0,1-21.71,16.51,80.18,80.18,0,0,1-29.09,5.06,63.81,63.81,0,0,1-24.07-4.34,41.22,41.22,0,0,1-17.82-13.74,61,61,0,0,1-10.14-20.37A84,84,0,0,1,111.11,214a138.92,138.92,0,0,1,1.23-19.76q1.23-8.43,5.33-29.52t8.6-44.71q3.07-10.36,8.3-13.62a22.57,22.57,0,0,1,12.19-3.25q8.81,1,12.6,3.86t3.79,8.68q0,1.93-2.81,17T154,168.19q-3.53,20.49-4.47,28.68a120.1,120.1,0,0,0-.93,12.77q0,12.78,3.49,17a43,43,0,0,0,10.47,8.56,35,35,0,0,0,8.62,1.21q12.52,0,19.92-11.81,3.08-6.74,4.72-18.2T198.69,186q1.23-8.91,4.93-33.5t4.52-30.37a24,24,0,0,1,3.18-9.52,32.39,32.39,0,0,1,6.26-7.11,20.75,20.75,0,0,1,10.27-2.41q6.77,0,11.08,3.37,4.31,5.06,4.31,13.74a99,99,0,0,1-.72,10.12Q241.8,136.86,241.8,138.54Z" transform="translate(-49 -29.5)"/></g><g class="cls-3"><path class="cls-4" d="M348.94,247a25.1,25.1,0,0,1,1.64,8.92q0,9.4-4,12.17t-12.19,3.86A143.38,143.38,0,0,1,315.76,273H273.15q-10.65,0-13.62-1.57a21.4,21.4,0,0,1-3.89-2.41,16.65,16.65,0,0,1-2.56-4,53.74,53.74,0,0,1-.61-8,62.26,62.26,0,0,1,.51-8.21q.51-3.86,1.95-12.55t5.33-33.79q3.89-25.1,6.66-43.44t5.43-34.51q2.66-16.17,6-18.7a14.14,14.14,0,0,1,8.71-2.53h4.51a23.63,23.63,0,0,1,6.76.72q2.25.72,5.43,4.7t3.18,11.93c-.14,1.29-.21,2.25-.21,2.89q-2.26,25.07-7.78,63.14t-6.56,45.07q-.41,3.62,3.69,4.58a43.37,43.37,0,0,0,9.83,1h18.64q15.36,0,18,1.08T348.94,247Z" transform="translate(-49 -29.5)"/></g><g class="cls-3"><path class="cls-4" d="M488.85,115.65a17.16,17.16,0,0,1,1.23,6.75,27.46,27.46,0,0,1-.82,6.15,46.85,46.85,0,0,1-1.84,6.15q-3.28,3.86-11.06,4.82a189.66,189.66,0,0,1-21.92,1q-14.55,0-25.09.6t-13.21,7.09a3.75,3.75,0,0,0,.2,4,35,35,0,0,0,4.51,4.93,409.2,409.2,0,0,1,44,14.19q17.41,7,22.12,29.11,0,2.17.21,4.57c.13,1.6.2,2.89.2,3.85q0,29.11-18.44,49.8a40.65,40.65,0,0,1-20.28,11.3q-11.27,2.41-28.27,2.41H389.7a89.53,89.53,0,0,1-14.75-1,30.24,30.24,0,0,1-8.4-1.8,7.71,7.71,0,0,1-4.51-5.06,24.83,24.83,0,0,1-1.23-7.82,31,31,0,0,1,1-7.46q3.07-8.66,24.17-10t41-2.53q20.48-3.13,20.49-16.12,0-7-2.87-10.59a62.31,62.31,0,0,0-19.67-9.27l-22-6.5a50.66,50.66,0,0,1-17.72-9.15q-7.58-6.13-9.32-14.32a73.08,73.08,0,0,1-1.74-15.16q0-19,11.06-33.21Q394,112,410.49,107.81A143.21,143.21,0,0,1,446,103.6q9.83,0,17.51.72a94.59,94.59,0,0,1,12.29,1.81,26.85,26.85,0,0,1,7.78,3A14,14,0,0,1,488.85,115.65Z" transform="translate(-49 -29.5)"/></g></g><g class="cls-3"><path class="cls-4" d="M168,302.62q-1.66,2.31-2.91,4l-3.78,4.95-3,3.9q-.73.66-1.44,1.34a1.76,1.76,0,0,1-1.92.09l-.46-.25-.44-.24a3.13,3.13,0,0,1-.73-.51,1.66,1.66,0,0,1-.34-1.58,7.35,7.35,0,0,1,.5-1.08q1.44-1.91,2.91-3.81l3-3.83q1.49-1.94,2.84-3.79.85-1,1.73-2,1.19-1.06,1.9-.76t.89.4l.26.14a4.6,4.6,0,0,1,1.13.82,1.05,1.05,0,0,1,.38.77,5,5,0,0,1-.11.67,2.29,2.29,0,0,1-.21.57A1.05,1.05,0,0,1,168,302.62Z" transform="translate(-49 -29.5)"/></g><g class="cls-3"><path class="cls-4" d="M176.08,303.71a1.59,1.59,0,0,1-.18.71,2.82,2.82,0,0,1-.51.7l-.47.48q-1.16.87-2.4,1.74a10.9,10.9,0,0,1-2.07,1.22,1.67,1.67,0,0,1-1.37.07,2.12,2.12,0,0,1-.56-.39,2.39,2.39,0,0,1-.42-.58,1.09,1.09,0,0,1-.14-.66,2.09,2.09,0,0,1,.21-.67,3.48,3.48,0,0,1,.21-.36,3.28,3.28,0,0,0,.19-.31q1-.94,1.52-1.39t2.54-2.09a3.13,3.13,0,0,1,.9-.33,2.7,2.7,0,0,1,1,0,3.66,3.66,0,0,1,.48.17A1.7,1.7,0,0,1,176.08,303.71Z" transform="translate(-49 -29.5)"/></g><g class="cls-3"><path class="cls-4" d="M192.48,325.06q-1.46,2.44-2.22,3.62a15.41,15.41,0,0,1-1.89,2.33,2.8,2.8,0,0,1-1.33.44,2.54,2.54,0,0,1-1.39-.27,4.91,4.91,0,0,1-1-.78,1.23,1.23,0,0,1-.32-1,7.94,7.94,0,0,1,.27-.8,14.4,14.4,0,0,1,1.16-2.12q.82-1.28,1-1.55a11.67,11.67,0,0,0,.68-1.05l1.43-2.56a1,1,0,0,0,0-.75,1.4,1.4,0,0,0-.51-.63,1.51,1.51,0,0,0-1.23-.23,4.19,4.19,0,0,0-1.06.46,23.76,23.76,0,0,0-2.77,3.84,27,27,0,0,1-2.75,3.88,2,2,0,0,1-1.1.44,2.74,2.74,0,0,1-1.21-.23,3.12,3.12,0,0,1-.45-.24l-.36-.23a5,5,0,0,1-.66-.92,1.16,1.16,0,0,1-.09-.88,33.86,33.86,0,0,1,2.33-4.35q1.66-2.72,2-3.41a1.25,1.25,0,0,0,0-.62,4.15,4.15,0,0,0-.23-.73,1.26,1.26,0,0,0-.39-.23,1.44,1.44,0,0,0-.68-.11,8.36,8.36,0,0,0-.92.15,2.1,2.1,0,0,0-.77.52,12.37,12.37,0,0,0-.86,1.15q-.56.82-1.82,2.8l-1.9,3a3.94,3.94,0,0,1-1,.67,3.26,3.26,0,0,1-1.07.33,5.32,5.32,0,0,1-1.35-.33,2.07,2.07,0,0,1-1-.82,1.82,1.82,0,0,1-.33-1,2.89,2.89,0,0,1,.24-1,6.66,6.66,0,0,1,.53-1l1.11-1.75,2.52-4q1.73-2.71,2.26-3.56a2.73,2.73,0,0,1,.93-1,1.47,1.47,0,0,1,1.15.12l.52.22q1.1.46,1.18,1.25c.05.53.12.81.21.85a3.21,3.21,0,0,0,.88.07h1.88a7,7,0,0,1,2.29.49,4.41,4.41,0,0,1,1.45,1,4.07,4.07,0,0,1,.87,1.49c.15.06.22.12.21.19a8.69,8.69,0,0,1,2.44-.2,7.25,7.25,0,0,1,2.36.54,4.82,4.82,0,0,1,2.2,1.64,3.44,3.44,0,0,1,.72,1.85,4.56,4.56,0,0,1-.39,1.8,11.23,11.23,0,0,1-.82,1.56Z" transform="translate(-49 -29.5)"/></g><g class="cls-3"><path class="cls-4" d="M223.66,330.3a2,2,0,0,1-1.34.51,2.23,2.23,0,0,0-1.36.48q-1.08,2.1-1.63,3.3a16.14,16.14,0,0,0-.9,2.44,2.85,2.85,0,0,0-.15.33,2.48,2.48,0,0,0,.46.77,4.82,4.82,0,0,1,.72,1.73,4.21,4.21,0,0,1-.05,2.09,8.55,8.55,0,0,1-1,1.91,6.37,6.37,0,0,1-3,2.23,9,9,0,0,1-4.56.71,12.92,12.92,0,0,1-3-.5,19.71,19.71,0,0,1-2.87-1q-1.42-.65-3-1.51a10.85,10.85,0,0,1-1.5-1.49,1.37,1.37,0,0,1-.12-1,4.27,4.27,0,0,1,.65-1.42,2.13,2.13,0,0,1,1.17-.75,1.81,1.81,0,0,1,.53,0,4.69,4.69,0,0,1,.56.12,7.8,7.8,0,0,1,1.56.7q1,.53,1.21.63.84.45,1.68.83a12.37,12.37,0,0,0,1.68.61,7.45,7.45,0,0,0,1.74.29,4.16,4.16,0,0,0,1.54-.23c.26-.19.47-.36.64-.5a.62.62,0,0,0,.22-.56.55.55,0,0,0-.41-.54l-1.11-.31-1.11-.31a16.65,16.65,0,0,1-4.58-1.9,5,5,0,0,1-2.12-3.33,8.66,8.66,0,0,1,.31-2.78,9.1,9.1,0,0,1,1.78-3.37A9.59,9.59,0,0,1,209.4,326a10.53,10.53,0,0,1,4.41-1,26.32,26.32,0,0,1,7.45,1.25l2.05.57a2.55,2.55,0,0,1,.35.24,5.77,5.77,0,0,1,.47.49,1.74,1.74,0,0,1,.25.72,1.94,1.94,0,0,1,0,.77,3.22,3.22,0,0,1-.25.63A8,8,0,0,1,223.66,330.3Zm-7.89-.52c0-.13,0-.21-.07-.24l-.22-.06a4,4,0,0,0-1.33,0q-.83.2-1.26.27a6.11,6.11,0,0,0-1.89,1.13,3.46,3.46,0,0,0-1,1.67,3.88,3.88,0,0,0-.13.8,1.24,1.24,0,0,0,.51,1,12,12,0,0,0,1.62.72,1.82,1.82,0,0,0,1,.11,1,1,0,0,0,.42-.49l1.22-2.43Q215.59,330.24,215.77,329.79Z" transform="translate(-49 -29.5)"/></g><g class="cls-3"><path class="cls-4" d="M237.78,341.19a9.48,9.48,0,0,1-3.59,2.71,6.9,6.9,0,0,1-4.34.5,11,11,0,0,1-3.68-1.45,6.85,6.85,0,0,1-2.44-2.81,8.28,8.28,0,0,1-.2-4.65,9.85,9.85,0,0,1,1-2.7,7.33,7.33,0,0,1,1.69-2.09,6.33,6.33,0,0,1,3.84-1.91,16.19,16.19,0,0,1,5.1.39,7.15,7.15,0,0,1,2.21,1.13,6,6,0,0,1,1.46,2,7.49,7.49,0,0,1,.78,2.65,8.49,8.49,0,0,1-.16,2.48A9.37,9.37,0,0,1,237.78,341.19Zm-3.55-6.35a2.17,2.17,0,0,0-.39-1l-.5-.38a3.65,3.65,0,0,0-.74-.25,2.84,2.84,0,0,0-2.43.61,15.69,15.69,0,0,0-1,1.49,4.94,4.94,0,0,0-.58,1.49,3.28,3.28,0,0,0,0,1.49,2.33,2.33,0,0,0,.58,1.09,2.41,2.41,0,0,0,3.59-.09,7.17,7.17,0,0,0,.93-1.38,6.18,6.18,0,0,0,.56-1.55A3.2,3.2,0,0,0,234.23,334.85Z" transform="translate(-49 -29.5)"/></g><g class="cls-3"><path class="cls-4" d="M255.48,344.08a9.47,9.47,0,0,1-3.43,2.91,6.9,6.9,0,0,1-4.31.74,11,11,0,0,1-3.75-1.24,6.85,6.85,0,0,1-2.59-2.67,8.28,8.28,0,0,1-.46-4.63,9.85,9.85,0,0,1,.84-2.75,7.33,7.33,0,0,1,1.57-2.18,6.34,6.34,0,0,1,3.73-2.12,16.19,16.19,0,0,1,5.12.1,7.12,7.12,0,0,1,2.27,1,6,6,0,0,1,1.58,2,7.51,7.51,0,0,1,.93,2.61,8.51,8.51,0,0,1,0,2.49A9.36,9.36,0,0,1,255.48,344.08Zm-3.9-6.14a2.17,2.17,0,0,0-.45-1l-.52-.35a3.68,3.68,0,0,0-.76-.21,2.84,2.84,0,0,0-2.39.75,15.6,15.6,0,0,0-.92,1.54,5,5,0,0,0-.5,1.52,3.28,3.28,0,0,0,.07,1.48,2.33,2.33,0,0,0,.64,1.06,2.41,2.41,0,0,0,3.58-.29,7.24,7.24,0,0,0,.85-1.43,6.21,6.21,0,0,0,.47-1.58A3.19,3.19,0,0,0,251.58,337.95Z" transform="translate(-49 -29.5)"/></g><g class="cls-3"><path class="cls-4" d="M275.88,330.62a1.84,1.84,0,0,1,0,.82,9.47,9.47,0,0,1-.23,1.34q-.15.62-1.19,4.44l-1.64,6q-.6,2.21-1.14,3.81t-.73,2a1.51,1.51,0,0,1-.79.67,2.38,2.38,0,0,1-1.25.28,16.1,16.1,0,0,1-1.91-.09l-.9-.09-.48,0a13.24,13.24,0,0,1-4.55-1.05,4.57,4.57,0,0,1-1.93-1.76,6.41,6.41,0,0,1-.73-2,7,7,0,0,1-.06-1.94,8.75,8.75,0,0,1,.55-2.3,11.59,11.59,0,0,1,1.66-2.69,9.22,9.22,0,0,1,3.85-2.68,13.92,13.92,0,0,1,5.57-1.06,5.3,5.3,0,0,0,.81-1.7q.36-1.14.62-2a1.51,1.51,0,0,1,.84-1.12,4.24,4.24,0,0,1,1.77-.09,8.43,8.43,0,0,1,1.38.55A1.52,1.52,0,0,1,275.88,330.62ZM269,339.35c0-.12,0-.19-.18-.2h-.41a6.05,6.05,0,0,0-2.62.68,3.28,3.28,0,0,0-1.56,1.51,5.21,5.21,0,0,0-.45,1.46,2.25,2.25,0,0,0,.33,1.54,3,3,0,0,0,1.74.69,5.53,5.53,0,0,0,1,0q.4-.08.8-1.08t.82-2.16A10.29,10.29,0,0,0,269,339.35Z" transform="translate(-49 -29.5)"/></g><g class="cls-3"><path class="cls-4" d="M301.89,347.12a9.48,9.48,0,0,1-3,3.35,6.91,6.91,0,0,1-4.16,1.32,11,11,0,0,1-3.89-.72,6.83,6.83,0,0,1-2.93-2.29,8.28,8.28,0,0,1-1.09-4.52,9.85,9.85,0,0,1,.46-2.84,7.34,7.34,0,0,1,1.26-2.38,6.34,6.34,0,0,1,3.41-2.61,16.19,16.19,0,0,1,5.08-.6,7.13,7.13,0,0,1,2.39.69,6,6,0,0,1,1.83,1.73,7.52,7.52,0,0,1,1.28,2.45,8.47,8.47,0,0,1,.32,2.47A9.36,9.36,0,0,1,301.89,347.12Zm-4.7-5.54a2.17,2.17,0,0,0-.58-.94l-.56-.28a3.69,3.69,0,0,0-.78-.1,2.84,2.84,0,0,0-2.27,1.07,15.81,15.81,0,0,0-.71,1.65,5,5,0,0,0-.28,1.57,3.29,3.29,0,0,0,.27,1.46,2.33,2.33,0,0,0,.78,1,2.41,2.41,0,0,0,3.51-.78,7.3,7.3,0,0,0,.64-1.53,6.2,6.2,0,0,0,.25-1.63A3.2,3.2,0,0,0,297.19,341.58Z" transform="translate(-49 -29.5)"/></g><g class="cls-3"><path class="cls-4" d="M318.23,337.21a4.38,4.38,0,0,1,.4,1.29,11.79,11.79,0,0,1,.17,1.66,23.47,23.47,0,0,1-.13,3.11q-.17,1.67-.44,3.27t-.47,2.9q-.44,1.42-1.27,1.67a5.52,5.52,0,0,1-1.13.26,3.33,3.33,0,0,1-.75-.07l-.6-.1a2.33,2.33,0,0,1-.76-.86,2.6,2.6,0,0,1-.26-1.09,7.77,7.77,0,0,1,.19-1.6q.21-1.06.36-2l.34-2.16a11.88,11.88,0,0,0,.16-2.17,2,2,0,0,0-.7-1.18,2.51,2.51,0,0,0-.66-.07,1.75,1.75,0,0,0-.83.21,3.47,3.47,0,0,0-1.33,2.35q-.24,1.54-.5,3.47a34.41,34.41,0,0,1-.64,3.53,2.42,2.42,0,0,1-2.18,1.9l-.57,0a2.65,2.65,0,0,1-.68-.05,1.25,1.25,0,0,1-.58-.36,1.59,1.59,0,0,1-.41-.77,5.54,5.54,0,0,1-.14-1.17q.22-1.66.69-5t.64-5.74a3.46,3.46,0,0,1,.43-1.15,2.71,2.71,0,0,1,.92-.87,3.16,3.16,0,0,1,1.31-.34,2.46,2.46,0,0,1,1.3.32,1,1,0,0,1,.42.44q.21.35.48.35a12.29,12.29,0,0,1,2.1-1.22,5.58,5.58,0,0,1,2.15-.53,3.42,3.42,0,0,1,1.74.37A3.11,3.11,0,0,1,318.23,337.21Z" transform="translate(-49 -29.5)"/></g><g class="cls-3"><path class="cls-4" d="M347.71,329.23a3.79,3.79,0,0,1,.13.57,1.42,1.42,0,0,1-.44,1.26,3.71,3.71,0,0,1-1.49.8,13.88,13.88,0,0,1-2.42.47l-1.46.17-1.43.17a3.07,3.07,0,0,0-.76.18,1,1,0,0,0-.51.53,2.2,2.2,0,0,0-.1,1.18,1.55,1.55,0,0,0,.18.62.38.38,0,0,0,.4.19l1.42-.16,1.39-.16q1.1-.13,1.82-.18a15,15,0,0,1,1.66,0,1.31,1.31,0,0,1,.83.41q.28.32.57.7a1.76,1.76,0,0,1,.07.38,2.29,2.29,0,0,1,0,.74,7.64,7.64,0,0,1-.24.83,3.94,3.94,0,0,1-.83.82,1.93,1.93,0,0,1-.91.39l-3.16.37-3.16.37c-.06,0-.11.06-.15.15s-.08.23-.13.39-.21,1.5-.49,4a34.48,34.48,0,0,1-.61,4.34,1.47,1.47,0,0,1-.72.85,3.21,3.21,0,0,1-1.14.34,3.29,3.29,0,0,1-1.11,0,2.14,2.14,0,0,1-.86-.41,2,2,0,0,1-.58-.7,39.16,39.16,0,0,1,0-5q.14-3.64.4-7.2t.46-5.55a4.72,4.72,0,0,1,.77-1.53,1.8,1.8,0,0,1,1.22-.79l4.19-.49,5.56-.65a1.18,1.18,0,0,1,1,.45A3,3,0,0,1,347.71,329.23Z" transform="translate(-49 -29.5)"/></g><g class="cls-3"><path class="cls-4" d="M366.08,326a2.41,2.41,0,0,1-.64,2.48,4.94,4.94,0,0,1-1,.52,6,6,0,0,1-1.14.3q-.5.09-1.46.18c-.64.06-1,.1-1.2.13l-.47.08-.5.09a6.76,6.76,0,0,0-3.06,1.33,4.91,4.91,0,0,0-1.76,2.7,7.3,7.3,0,0,0-.24,3.54,5.78,5.78,0,0,0,1.16,2.65A6.23,6.23,0,0,0,359,341.8a10.13,10.13,0,0,0,4,.06,12.53,12.53,0,0,0,2.21-.6,1.05,1.05,0,0,1,.91,0,2.25,2.25,0,0,1,.71.69,4.52,4.52,0,0,1,.24.85,2.22,2.22,0,0,1-.28,1.71,5.08,5.08,0,0,1-1.87,1.26,14.37,14.37,0,0,1-2.7.7l-.95.16-.95.16a8.69,8.69,0,0,1-5.58-.95,9.75,9.75,0,0,1-4.2-4q-.41-.94-.67-1.75a13.1,13.1,0,0,1-.43-1.79,12.33,12.33,0,0,1,.11-4.93,9.66,9.66,0,0,1,1.93-4,9.46,9.46,0,0,1,3.61-2.64,16.74,16.74,0,0,1,3.58-1.2l.78-.14,1-.17a17.59,17.59,0,0,1,3.77-.3Q365.76,325,366.08,326Z" transform="translate(-49 -29.5)"/></g><g class="cls-3"><path class="cls-4" d="M383.6,321.8a2.41,2.41,0,0,1-.49,2.52,5,5,0,0,1-1,.58,6,6,0,0,1-1.12.37q-.5.12-1.45.26c-.63.1-1,.17-1.19.2l-.47.11-.5.12a6.76,6.76,0,0,0-3,1.51,4.91,4.91,0,0,0-1.59,2.8,7.3,7.3,0,0,0,0,3.55,5.77,5.77,0,0,0,1.31,2.58,6.23,6.23,0,0,0,3.33,1.65,10.12,10.12,0,0,0,4-.18,12.44,12.44,0,0,0,2.17-.73,1.05,1.05,0,0,1,.91,0,2.27,2.27,0,0,1,.75.64,4.46,4.46,0,0,1,.29.83,2.21,2.21,0,0,1-.18,1.72,5.05,5.05,0,0,1-1.79,1.37,14.23,14.23,0,0,1-2.65.86l-.93.22-.93.22a8.68,8.68,0,0,1-5.63-.61,9.75,9.75,0,0,1-4.43-3.77q-.46-.91-.77-1.71a13.07,13.07,0,0,1-.54-1.76,12.34,12.34,0,0,1-.19-4.92,9.7,9.7,0,0,1,1.69-4.16,9.48,9.48,0,0,1,3.44-2.85,16.7,16.7,0,0,1,3.51-1.41l.77-.18.95-.22a17.6,17.6,0,0,1,3.74-.53Q383.22,320.84,383.6,321.8Z" transform="translate(-49 -29.5)"/></g><g class="cls-3"><path class="cls-4" d="M393.24,336.84a2.26,2.26,0,0,1-.39,1.48,3.29,3.29,0,0,1-1.22,1.09l-.32.09a5.55,5.55,0,0,1-1.26.23,1.76,1.76,0,0,1-1-.28,2.91,2.91,0,0,1-1-1.58,3,3,0,0,1-.08-1.22,2.65,2.65,0,0,1,.51-1.23,2.51,2.51,0,0,1,1.06-.86l.58-.16a4.1,4.1,0,0,1,.87-.17,2.16,2.16,0,0,1,.83.19,1.79,1.79,0,0,1,.81.63,3.18,3.18,0,0,1,.47,1A3.81,3.81,0,0,1,393.24,336.84Z" transform="translate(-49 -29.5)"/></g><g class="cls-3"><path class="cls-4" d="M409.14,314.65a2.33,2.33,0,0,1-1,1.81,8.54,8.54,0,0,1-2.33,1.12l-.8.26-1.57.52a12.43,12.43,0,0,0-4.35,2.14,5,5,0,0,0-1.5,2.63,7.14,7.14,0,0,0,.27,3.4,5.87,5.87,0,0,0,.79,1.56,4.66,4.66,0,0,0,1.2,1.18,8.07,8.07,0,0,0,3.57,1.06,10.48,10.48,0,0,0,3.86-.56.7.7,0,0,0,.42-.63,3.71,3.71,0,0,0,0-1.09,13.22,13.22,0,0,0-.29-1.39q-.21-.81-.49-1.67a.16.16,0,0,0-.17-.12.26.26,0,0,1-.18-.05,3.27,3.27,0,0,0-.78.13l-.55.15-.76.25-.75.25a4.82,4.82,0,0,1-1.61.28,1.82,1.82,0,0,1-1.28-.61,2.94,2.94,0,0,1-.31-.65,2,2,0,0,1,.19-1.82,4.12,4.12,0,0,1,1.16-1l6.66-2.21a3.25,3.25,0,0,1,1.23-.19,1.28,1.28,0,0,1,.95.57,38.51,38.51,0,0,1,1.46,7.46q.54,4.67-.73,5.43a14.82,14.82,0,0,1-2.89,1.29,20,20,0,0,1-3.06.74,24,24,0,0,1-3.62.28,8.72,8.72,0,0,1-4.21-1.15,10.06,10.06,0,0,1-3.58-3.17,11.64,11.64,0,0,1-1.23-2.56,10.23,10.23,0,0,1-.39-4.94,11.47,11.47,0,0,1,2-4.74,10,10,0,0,1,3.22-2.63,30.1,30.1,0,0,1,4.65-1.94l2.06-.68,2.06-.68a5.47,5.47,0,0,0,.78,0,2.13,2.13,0,0,1,1,.21,1.61,1.61,0,0,1,.71,1A3.39,3.39,0,0,1,409.14,314.65Z" transform="translate(-49 -29.5)"/></g><g class="cls-3"><path class="cls-4" d="M425.66,308.9a9.55,9.55,0,0,1,2,1.94,11.65,11.65,0,0,1,1.43,2.53,13.41,13.41,0,0,1,1,4.15,13.17,13.17,0,0,1-.44,4.44,9.58,9.58,0,0,1-2.33,4.12A12.26,12.26,0,0,1,423,329a21.49,21.49,0,0,1-2.2.72,7.83,7.83,0,0,1-3.82-.11,6.73,6.73,0,0,1-3.73-2.17,11.46,11.46,0,0,1-2.18-3.44,13.92,13.92,0,0,1-1-4,14.62,14.62,0,0,1,.15-4.11,11.22,11.22,0,0,1,2.47-4.56,11.85,11.85,0,0,1,4.3-3,15,15,0,0,1,1.89-.62,17,17,0,0,1,3.55-.52A7.71,7.71,0,0,1,425.66,308.9Zm-3.75,4.1a3,3,0,0,0-1.63-.75,3.52,3.52,0,0,0-1.75.28,5.16,5.16,0,0,0-1.72,1.17,5.53,5.53,0,0,0-1.42,3.92,14,14,0,0,0,1.17,4.76,4.41,4.41,0,0,0,1.72,2,3.32,3.32,0,0,0,2.11.68,5.24,5.24,0,0,0,1.4-.31,4.15,4.15,0,0,0,1.83-1.5,6.34,6.34,0,0,0,1-2.32,11.16,11.16,0,0,0-.93-5.27A7.78,7.78,0,0,0,421.91,313Z" transform="translate(-49 -29.5)"/></g><g class="cls-3"><path class="cls-4" d="M444.3,298.4a53.43,53.43,0,0,1,1.17,9.71,31,31,0,0,1-1.17,9.15,5.41,5.41,0,0,1-2.45,2.69,4.09,4.09,0,0,1-1.61.46,3.75,3.75,0,0,1-2-.52q-1.28-.81-1.87-1.15a30.58,30.58,0,0,1-4.26-4.19,28.43,28.43,0,0,1-3.4-5l-.37-.7-.39-.73a10,10,0,0,1-.81-1.9,3,3,0,0,1-.1-1.42,1.68,1.68,0,0,1,.5-.95,4.71,4.71,0,0,1,.93-.63,2.27,2.27,0,0,1,1.59-.39,2.22,2.22,0,0,1,1,.61,4.71,4.71,0,0,1,.74,1l.44.85.42.83c0,.09.1.18.17.28l.14.23a37,37,0,0,0,2.67,4.39,17.43,17.43,0,0,0,2.58,2.88q1.33,1.16,1.68,1t.51-1.55a20.36,20.36,0,0,0,.24-3.86,38,38,0,0,0-.39-4.91q-.36-2.47-.72-4.27a5.26,5.26,0,0,1-.13-2.42,2.2,2.2,0,0,1,1.11-1.08l1.09-.58a2.57,2.57,0,0,1,1.11-.21,2.34,2.34,0,0,1,.69.52,3.49,3.49,0,0,1,.53.74A4.61,4.61,0,0,1,444.3,298.4Z" transform="translate(-49 -29.5)"/></g></svg>