<svg id="Layer_1" data-name="Layer 1" xmlns="http://www.w3.org/2000/svg" viewBox="0 0 600 400"><defs><style>.cls-1{fill:#fff;stroke:#231f20;}.cls-1,.cls-2{stroke-linecap:round;stroke-miterlimit:10;}.cls-2{fill:none;stroke:#42aae0;stroke-width:6px;}.cls-3{font-size:241px;letter-spacing:0.01em;}.cls-3,.cls-6{fill:#231f20;font-family:Tubular-Regular, Tubular;}.cls-4{letter-spacing:0.05em;}.cls-5{letter-spacing:0em;}.cls-6{font-size:30px;}</style></defs><title>Artboard 1</title><ellipse class="cls-1" cx="300" cy="201.17" rx="250.5" ry="171.17"/><ellipse class="cls-2" cx="300" cy="200" rx="241.25" ry="163"/><text class="cls-3" transform="translate(103.12 272.3) scale(0.85 1)">U<tspan class="cls-4" x="170.39" y="0">L</tspan><tspan class="cls-5" x="307.03" y="0">S</tspan></text><text class="cls-6" transform="translate(151.51 314.97) rotate(28.42)">I</text><text class="cls-6" transform="translate(160.31 319.71) rotate(26.29)">’</text><text class="cls-6" transform="matrix(0.92, 0.38, -0.38, 0.92, 167.67, 323.64)">m</text><text class="cls-6" transform="matrix(0.95, 0.32, -0.32, 0.95, 191.94, 333.37)"> </text><text class="cls-6" transform="translate(202.92 337.14) rotate(15.56)">g</text><text class="cls-6" transform="translate(221.53 342.28) rotate(12.1)">o</text><text class="cls-6" transform="translate(239.32 346.08) rotate(8.89)">o</text><text class="cls-6" transform="translate(257.28 348.86) rotate(5.84)">d</text><text class="cls-6" transform="matrix(1, 0.06, -0.06, 1, 274.67, 350.57)"> </text><text class="cls-6" transform="translate(286.15 351.31) rotate(1.03)">o</text><text class="cls-6" transform="matrix(1, -0.03, 0.03, 1, 304.28, 351.62)">n</text><text class="cls-6" transform="translate(321.3 351.01) rotate(-4.15)"> </text><text class="cls-6" transform="translate(332.78 350.24) rotate(-6.62)">F</text><text class="cls-6" transform="translate(350.77 348.15) rotate(-9.81)">C</text><text class="cls-6" transform="translate(369.64 344.87) rotate(-13.24)">C</text><text class="cls-6" transform="matrix(0.96, -0.27, 0.27, 0.96, 388.06, 340.41)">.</text><text class="cls-6" transform="translate(395.64 338.4) rotate(-18.33)">C</text><text class="cls-6" transform="translate(413.99 332.36) rotate(-22.63)">O</text><text class="cls-6" transform="translate(434.88 323.66) rotate(-27.94)">M</text></svg>